Coordinates
version=1
nRows=14
nColumns=63
inDegrees=yes

Units are S.I. units (second, meters, Newtons, ...)
If the header above contains a line with 'inDegrees', this indicates whether rotational values are in degrees (yes) or radians (no).

endheader
time	pelvis_tilt	pelvis_list	pelvis_rotation	pelvis_tx	pelvis_ty	pelvis_tz	hip_flexion_r	hip_adduction_r	hip_rotation_r	knee_angle_r	knee_angle_r_beta	ankle_angle_r	subtalar_angle_r	mtp_angle_r	hip_flexion_l	hip_adduction_l	hip_rotation_l	knee_angle_l	knee_angle_l_beta	ankle_angle_l	subtalar_angle_l	mtp_angle_l	L5_S1_Flex_Ext	L5_S1_Lat_Bending	L5_S1_axial_rotation	L4_L5_Flex_Ext	L4_L5_Lat_Bending	L4_L5_axial_rotation	L3_L4_Flex_Ext	L3_L4_Lat_Bending	L3_L4_axial_rotation	L2_L3_Flex_Ext	L2_L3_Lat_Bending	L2_L3_axial_rotation	L1_L2_Flex_Ext	L1_L2_Lat_Bending	L1_L2_axial_rotation	L1_T12_Flex_Ext	L1_T12_Lat_Bending	L1_T12_axial_rotation	Abs_r3	Abs_r2	Abs_r1	Abs_t1	Abs_t2	neck_flexion	neck_bending	neck_rotation	arm_flex_r	arm_add_r	arm_rot_r	elbow_flex_r	pro_sup_r	wrist_flex_r	wrist_dev_r	arm_flex_l	arm_add_l	arm_rot_l	elbow_flex_l	pro_sup_l	wrist_flex_l	wrist_dev_l
1.283333	-2.622995	-3.336206	93.992440	0.228824	1.026339	0.462224	-0.012915	-2.866138	-11.324786	8.036178	0.140258	20.434129	10.004683	0.000000	-0.358210	2.814187	-5.408790	3.964668	0.069197	18.518357	-2.923724	0.000000	0.009198	-0.459145	1.069308	0.017081	-0.610663	1.136140	0.015111	-1.116366	1.136140	0.010512	-1.116366	0.935645	0.008541	-0.936289	0.868813	0.005256	-0.711216	0.801981	0.065699	-5.193945	5.947173	0.000000	0.000000	14.501184	4.713380	-1.871386	37.416595	-9.841575	19.057988	66.936468	86.191649	-6.536430	2.558087	39.403937	-11.718000	30.603638	87.353985	84.318772	-8.715256	-2.041268
1.300000	-2.573366	-2.938444	93.743483	0.229114	1.027383	0.462744	-0.247526	-2.750829	-10.731582	8.073523	0.140910	20.295461	9.569071	0.000000	-0.722173	2.713230	-6.251709	4.106996	0.071681	18.373340	-2.247356	0.000000	-0.003735	-0.455439	1.123298	-0.006937	-0.605734	1.193504	-0.006137	-1.107354	1.193504	-0.004269	-1.107354	0.982886	-0.003469	-0.928731	0.912680	-0.002134	-0.705475	0.842473	-0.026681	-5.152015	6.247446	0.000000	0.000000	13.398979	4.897228	-2.553447	41.237924	-10.718298	18.552246	69.233365	85.660190	-6.375543	2.686123	44.746417	-11.554866	31.541229	87.472123	85.680787	-8.768305	-4.568339
1.316667	-2.526019	-2.605880	93.528269	0.229311	1.028281	0.463523	-0.376757	-2.668291	-10.270626	8.195146	0.143032	20.161124	9.182679	0.000000	-0.982890	2.621326	-7.109130	4.275806	0.074627	18.293360	-1.471604	0.000000	-0.013092	-0.453732	1.166959	-0.024312	-0.603463	1.239894	-0.021508	-1.103204	1.239894	-0.014962	-1.103204	1.021089	-0.012157	-0.925250	0.948154	-0.007481	-0.702831	0.875219	-0.093512	-5.132706	6.490276	0.000000	0.000000	12.427374	5.085140	-3.330945	45.257244	-11.633284	18.449406	71.286674	85.323394	-6.348103	2.139771	50.416975	-11.375923	32.869738	86.801020	86.780349	-8.899144	-7.374477
1.333333	-2.472167	-2.316744	93.361012	0.229365	1.029080	0.464489	-0.446711	-2.602321	-9.956056	8.375490	0.146180	19.994136	8.811764	0.000000	-1.173454	2.527993	-7.959706	4.455851	0.077769	18.287082	-0.605622	0.000000	-0.021523	-0.451608	1.199309	-0.039970	-0.600639	1.274266	-0.035360	-1.098040	1.274266	-0.024599	-1.098040	1.049395	-0.019986	-0.920919	0.974438	-0.012298	-0.699541	0.899482	-0.153737	-5.108680	6.670196	0.000000	0.000000	11.587186	5.273688	-4.150509	49.438718	-12.602207	18.753739	73.077535	85.172589	-6.688416	0.942820	56.280612	-11.185097	34.537535	85.463587	86.973694	-8.979710	-10.544646
1.350000	-2.396418	-2.068398	93.251682	0.229238	1.029794	0.465541	-0.474084	-2.536491	-9.786858	8.602582	0.150143	19.780005	8.459252	0.000000	-1.308199	2.420788	-8.709419	4.631051	0.080827	18.338410	0.236081	0.000000	-0.027497	-0.446593	1.209764	-0.051065	-0.593969	1.285374	-0.045175	-1.085847	1.285374	-0.031426	-1.085847	1.058543	-0.025534	-0.910693	0.982933	-0.015712	-0.691773	0.907323	-0.196409	-5.051954	6.728342	0.000000	0.000000	10.856815	5.484423	-4.918469	53.774654	-13.647956	19.550524	74.555009	85.180655	-7.432293	-0.884314	62.054030	-10.974643	35.998973	83.709930	87.590271	-8.955694	-13.420023
1.366667	-2.304491	-1.853787	93.194913	0.228954	1.030444	0.466612	-0.481650	-2.471720	-9.764336	8.847812	0.154423	19.508113	8.154623	0.000000	-1.397081	2.303028	-9.376641	4.805328	0.083869	18.459972	1.078503	0.000000	-0.032354	-0.439240	1.203206	-0.060085	-0.584189	1.278407	-0.053154	-1.067968	1.278407	-0.036977	-1.067968	1.052806	-0.030044	-0.895698	0.977605	-0.018487	-0.680382	0.902405	-0.231102	-4.968768	6.691873	0.000000	0.000000	10.276891	5.690174	-5.642007	58.164325	-14.755002	20.570929	75.733738	85.345574	-8.430003	-3.110461	67.686385	-10.818005	37.430927	81.743702	87.639472	-8.890101	-16.108243
1.383333	-2.200142	-1.677052	93.162605	0.228563	1.031022	0.467576	-0.467793	-2.407166	-9.832788	9.103155	0.158880	19.194152	7.889261	0.000000	-1.461073	2.183564	-9.869403	4.945745	0.086320	18.590398	1.734199	0.000000	-0.034267	-0.430113	1.185657	-0.063637	-0.572050	1.259760	-0.056297	-1.045776	1.259760	-0.039164	-1.045776	1.037450	-0.031820	-0.877085	0.963346	-0.019580	-0.666244	0.889243	-0.244766	-4.865519	6.594268	0.000000	0.000000	9.851626	5.892789	-6.292335	62.523664	-15.911888	21.656135	76.631807	85.634270	-9.621885	-5.480487	73.021928	-10.692698	38.570461	79.744932	88.027438	-8.892763	-18.141015
1.400000	-2.098951	-1.538227	93.142354	0.228150	1.031534	0.468355	-0.442701	-2.351897	-9.967111	9.345470	0.163109	18.856334	7.693088	0.000000	-1.505729	2.074290	-10.204442	5.054985	0.088226	18.722291	2.224362	0.000000	-0.034569	-0.421309	1.162752	-0.064198	-0.560341	1.235424	-0.056793	-1.024370	1.235424	-0.039509	-1.024370	1.017408	-0.032101	-0.859133	0.944736	-0.019753	-0.652607	0.872064	-0.246922	-4.765930	6.466880	0.000000	0.000000	9.634153	6.096927	-6.824236	66.759229	-17.079946	22.577093	77.313589	86.027206	-10.876710	-7.615376	78.056704	-10.650509	39.587450	77.801980	88.232658	-9.418614	-19.759809
1.416667	-2.013847	-1.442554	93.135099	0.227778	1.031983	0.468872	-0.410283	-2.310915	-10.128629	9.556732	0.166796	18.516049	7.545562	0.000000	-1.534983	1.986450	-10.366640	5.126556	0.089475	18.834662	2.534437	0.000000	-0.033815	-0.414761	1.132033	-0.062799	-0.551633	1.202785	-0.055555	-1.008451	1.202785	-0.038648	-1.008451	0.990529	-0.031401	-0.845782	0.919777	-0.019322	-0.642465	0.849025	-0.241540	-4.691864	6.296027	0.000000	0.000000	9.648597	6.320988	-7.183653	70.798038	-18.204025	23.213335	77.824737	86.500071	-12.185750	-9.276506	82.728837	-10.696883	40.433002	75.979244	88.368654	-10.725650	-21.148439
1.433333	-1.954563	-1.387782	93.142390	0.227496	1.032382	0.469060	-0.379226	-2.287453	-10.298021	9.726474	0.169759	18.197943	7.430793	0.000000	-1.561332	1.928496	-10.368668	5.150244	0.089889	18.907404	2.676353	0.000000	-0.033204	-0.412020	1.088480	-0.061663	-0.547987	1.156510	-0.054550	-1.001787	1.156510	-0.037948	-1.001787	0.952420	-0.030833	-0.840192	0.884390	-0.018973	-0.638220	0.816360	-0.237171	-4.660858	6.053802	0.000000	0.000000	9.873264	6.600202	-7.312749	74.580065	-19.239330	23.513647	78.206805	87.038464	-13.580862	-10.334258	86.980521	-10.829869	41.033698	74.336183	88.507286	-12.962457	-22.506612
1.450000	-1.926088	-1.367061	93.145420	0.227334	1.032749	0.468887	-0.354118	-2.284041	-10.427256	9.854659	0.171996	17.904205	7.319287	0.000000	-1.596952	1.905603	-10.237286	5.122352	0.089402	18.932277	2.669261	0.000000	-0.033046	-0.413766	1.035459	-0.061370	-0.550308	1.100176	-0.054292	-1.006030	1.100176	-0.037769	-1.006030	0.906027	-0.030687	-0.843751	0.841311	-0.018883	-0.640923	0.776595	-0.236046	-4.680601	5.758915	0.000000	0.000000	10.241573	6.957447	-7.226586	78.059800	-20.176904	23.457537	78.470066	87.611771	-15.078533	-10.807738	90.799197	-11.041646	41.363114	72.963975	88.731139	-16.097958	-23.709594
1.466667	-1.935892	-1.360606	93.129534	0.227336	1.033108	0.468358	-0.358686	-2.298462	-10.433663	9.928083	0.173278	17.620151	7.103856	0.000000	-1.661665	1.917196	-10.127814	5.050406	0.088146	18.946673	2.716283	0.000000	-0.034803	-0.420631	0.979854	-0.064633	-0.559439	1.041095	-0.057178	-1.022721	1.041095	-0.039777	-1.022721	0.857372	-0.032318	-0.857750	0.796131	-0.019887	-0.651557	0.734890	-0.248597	-4.758258	5.449654	0.000000	0.000000	10.657867	7.393958	-6.948793	81.223114	-21.007622	23.045906	78.563688	88.163676	-16.618317	-10.812135	94.232445	-11.381554	41.440094	71.971555	88.946434	-19.815830	-24.429244
1.483333	-1.980991	-1.345702	93.085412	0.227479	1.033481	0.467495	-0.414197	-2.332541	-10.348495	9.949681	0.173655	17.352988	6.841484	0.000000	-1.786294	1.967878	-9.927337	4.917897	0.085833	18.904627	2.635165	0.000000	-0.038682	-0.431323	0.929954	-0.071836	-0.573659	0.988076	-0.063550	-1.048719	0.988076	-0.044209	-1.048719	0.813710	-0.035920	-0.879554	0.755588	-0.022103	-0.668119	0.697466	-0.276300	-4.879211	5.172126	0.000000	0.000000	11.011463	7.880326	-6.520891	84.081424	-21.757375	22.328883	78.401304	88.619986	-18.114199	-10.484336	97.354734	-11.875594	41.311408	71.357011	89.118164	-23.722954	-24.500616
1.500000	-2.048241	-1.306381	93.006009	0.227718	1.033868	0.466347	-0.536515	-2.376049	-10.177663	9.913111	0.173016	17.096269	6.544292	0.000000	-1.983793	2.046636	-9.645235	4.727511	0.082511	18.815780	2.423247	0.000000	-0.044567	-0.443755	0.898276	-0.082766	-0.590194	0.954419	-0.073220	-1.078945	0.954419	-0.050936	-1.078945	0.785992	-0.041385	-0.904905	0.729850	-0.025466	-0.687376	0.673707	-0.318340	-5.019843	4.995944	0.000000	0.000000	11.240672	8.366867	-6.049604	86.689232	-22.500298	21.458556	77.924349	88.904714	-19.518768	-9.859693	100.260439	-12.536155	41.116777	71.047894	89.201983	-27.636292	-23.887888
